<svg width="75" height="75" viewBox="0 0 75 75" fill="none" xmlns="http://www.w3.org/2000/svg">
<g clip-path="url(#clip0_28_92)">
<path d="M51.5625 28.125C51.5625 31.8546 50.0809 35.4315 47.4437 38.0687C44.8065 40.7059 41.2296 42.1875 37.5 42.1875C33.7704 42.1875 30.1935 40.7059 27.5563 38.0687C24.9191 35.4315 23.4375 31.8546 23.4375 28.125C23.4375 24.3954 24.9191 20.8185 27.5563 18.1813C30.1935 15.5441 33.7704 14.0625 37.5 14.0625C41.2296 14.0625 44.8065 15.5441 47.4437 18.1813C50.0809 20.8185 51.5625 24.3954 51.5625 28.125Z" fill="#444444"/>
<path fill-rule="evenodd" clip-rule="evenodd" d="M0 37.5C0 27.5544 3.95088 18.0161 10.9835 10.9835C18.0161 3.95088 27.5544 0 37.5 0C47.4456 0 56.9839 3.95088 64.0165 10.9835C71.0491 18.0161 75 27.5544 75 37.5C75 47.4456 71.0491 56.9839 64.0165 64.0165C56.9839 71.0491 47.4456 75 37.5 75C27.5544 75 18.0161 71.0491 10.9835 64.0165C3.95088 56.9839 0 47.4456 0 37.5ZM37.5 4.6875C31.3208 4.68783 25.2673 6.43295 20.0363 9.722C14.8052 13.0111 10.6091 17.7104 7.93108 23.279C5.25303 28.8477 4.20181 35.0594 4.89843 41.1992C5.59505 47.3389 8.01119 53.1572 11.8688 57.9844C15.1969 52.6219 22.5234 46.875 37.5 46.875C52.4766 46.875 59.7984 52.6172 63.1313 57.9844C66.9888 53.1572 69.405 47.3389 70.1016 41.1992C70.7982 35.0594 69.747 28.8477 67.0689 23.279C64.3909 17.7104 60.1948 13.0111 54.9637 9.722C49.7327 6.43295 43.6792 4.68783 37.5 4.6875Z" fill="#444444"/>
</g>
<defs>
<clipPath id="clip0_28_92">
<rect width="75" height="75" fill="white"/>
</clipPath>
</defs>
</svg>
