<svg width="80" height="80" viewBox="0 0 80 80" fill="none" xmlns="http://www.w3.org/2000/svg">
<path d="M5 12.5C5 10.5109 5.79018 8.60322 7.1967 7.1967C8.60322 5.79018 10.5109 5 12.5 5H27.5C29.4891 5 31.3968 5.79018 32.8033 7.1967C34.2098 8.60322 35 10.5109 35 12.5V27.5C35 29.4891 34.2098 31.3968 32.8033 32.8033C31.3968 34.2098 29.4891 35 27.5 35H12.5C10.5109 35 8.60322 34.2098 7.1967 32.8033C5.79018 31.3968 5 29.4891 5 27.5V12.5ZM45 12.5C45 10.5109 45.7902 8.60322 47.1967 7.1967C48.6032 5.79018 50.5109 5 52.5 5H67.5C69.4891 5 71.3968 5.79018 72.8033 7.1967C74.2098 8.60322 75 10.5109 75 12.5V27.5C75 29.4891 74.2098 31.3968 72.8033 32.8033C71.3968 34.2098 69.4891 35 67.5 35H52.5C50.5109 35 48.6032 34.2098 47.1967 32.8033C45.7902 31.3968 45 29.4891 45 27.5V12.5ZM5 52.5C5 50.5109 5.79018 48.6032 7.1967 47.1967C8.60322 45.7902 10.5109 45 12.5 45H27.5C29.4891 45 31.3968 45.7902 32.8033 47.1967C34.2098 48.6032 35 50.5109 35 52.5V67.5C35 69.4891 34.2098 71.3968 32.8033 72.8033C31.3968 74.2098 29.4891 75 27.5 75H12.5C10.5109 75 8.60322 74.2098 7.1967 72.8033C5.79018 71.3968 5 69.4891 5 67.5V52.5ZM45 52.5C45 50.5109 45.7902 48.6032 47.1967 47.1967C48.6032 45.7902 50.5109 45 52.5 45H67.5C69.4891 45 71.3968 45.7902 72.8033 47.1967C74.2098 48.6032 75 50.5109 75 52.5V67.5C75 69.4891 74.2098 71.3968 72.8033 72.8033C71.3968 74.2098 69.4891 75 67.5 75H52.5C50.5109 75 48.6032 74.2098 47.1967 72.8033C45.7902 71.3968 45 69.4891 45 67.5V52.5Z" fill="black"/>
</svg>
