<svg width="80" height="80" viewBox="0 0 80 80" fill="none" xmlns="http://www.w3.org/2000/svg">
<g clip-path="url(#clip0_28_66)">
<path d="M0.180183 16.57C0.426951 15.9548 0.90794 15.4628 1.51739 15.2021C2.12685 14.9414 2.81487 14.9335 3.43018 15.18L12.2152 18.695C14.003 19.41 15.9974 19.41 17.7852 18.695L22.8552 16.665C25.8354 15.4729 29.16 15.4729 32.1402 16.665L37.2152 18.695C39.003 19.41 40.9974 19.41 42.7852 18.695L47.8552 16.665C50.8354 15.4729 54.16 15.4729 57.1402 16.665L62.2152 18.695C64.003 19.41 65.9974 19.41 67.7852 18.695L76.5702 15.18C76.8763 15.0498 77.2054 14.9821 77.5381 14.9807C77.8707 14.9793 78.2003 15.0443 78.5076 15.172C78.8148 15.2996 79.0934 15.4873 79.3272 15.724C79.561 15.9607 79.7451 16.2417 79.8689 16.5504C79.9927 16.8592 80.0536 17.1896 80.0481 17.5223C80.0425 17.8549 79.9707 18.1831 79.8367 18.4876C79.7027 18.7921 79.5093 19.0668 79.2677 19.2956C79.0262 19.5244 78.7415 19.7026 78.4302 19.82L69.6402 23.335C66.66 24.5271 63.3354 24.5271 60.3552 23.335L55.2852 21.305C53.4974 20.59 51.503 20.59 49.7152 21.305L44.6402 23.335C41.66 24.5271 38.3354 24.5271 35.3552 23.335L30.2852 21.305C28.4974 20.59 26.503 20.59 24.7152 21.305L19.6402 23.335C16.66 24.5271 13.3354 24.5271 10.3552 23.335L1.57018 19.82C0.954975 19.5732 0.46295 19.0922 0.202291 18.4828C-0.0583668 17.8733 -0.0663192 17.1853 0.180183 16.57ZM0.180183 31.57C0.426951 30.9548 0.90794 30.4628 1.51739 30.2021C2.12685 29.9414 2.81487 29.9335 3.43018 30.18L12.2152 33.695C14.003 34.41 15.9974 34.41 17.7852 33.695L22.8552 31.665C25.8354 30.4729 29.16 30.4729 32.1402 31.665L37.2152 33.695C39.003 34.41 40.9974 34.41 42.7852 33.695L47.8552 31.665C50.8354 30.4729 54.16 30.4729 57.1402 31.665L62.2152 33.695C64.003 34.41 65.9974 34.41 67.7852 33.695L76.5702 30.18C76.8763 30.0498 77.2054 29.9821 77.5381 29.9807C77.8707 29.9793 78.2003 30.0443 78.5076 30.172C78.8148 30.2996 79.0934 30.4873 79.3272 30.724C79.561 30.9607 79.7451 31.2417 79.8689 31.5504C79.9927 31.8592 80.0536 32.1896 80.0481 32.5223C80.0425 32.8549 79.9707 33.1831 79.8367 33.4876C79.7027 33.7921 79.5093 34.0668 79.2677 34.2956C79.0262 34.5244 78.7415 34.7026 78.4302 34.82L69.6402 38.335C66.66 39.5271 63.3354 39.5271 60.3552 38.335L55.2852 36.305C53.4974 35.59 51.503 35.59 49.7152 36.305L44.6402 38.335C41.66 39.5271 38.3354 39.5271 35.3552 38.335L30.2852 36.305C28.4974 35.59 26.503 35.59 24.7152 36.305L19.6402 38.335C16.66 39.5271 13.3354 39.5271 10.3552 38.335L1.57018 34.82C0.954975 34.5732 0.46295 34.0922 0.202291 33.4828C-0.0583668 32.8733 -0.0663192 32.1853 0.180183 31.57ZM0.180183 46.57C0.426951 45.9548 0.90794 45.4628 1.51739 45.2021C2.12685 44.9414 2.81487 44.9335 3.43018 45.18L12.2152 48.695C14.003 49.41 15.9974 49.41 17.7852 48.695L22.8552 46.665C25.8354 45.4729 29.16 45.4729 32.1402 46.665L37.2152 48.695C39.003 49.41 40.9974 49.41 42.7852 48.695L47.8552 46.665C50.8354 45.4729 54.16 45.4729 57.1402 46.665L62.2152 48.695C64.003 49.41 65.9974 49.41 67.7852 48.695L76.5702 45.18C76.8763 45.0498 77.2054 44.982 77.5381 44.9807C77.8707 44.9793 78.2003 45.0443 78.5076 45.172C78.8148 45.2996 79.0934 45.4873 79.3272 45.724C79.561 45.9607 79.7451 46.2417 79.8689 46.5504C79.9927 46.8592 80.0536 47.1896 80.0481 47.5223C80.0425 47.8549 79.9707 48.1831 79.8367 48.4876C79.7027 48.7921 79.5093 49.0668 79.2677 49.2956C79.0262 49.5244 78.7415 49.7026 78.4302 49.82L69.6402 53.335C66.66 54.5271 63.3354 54.5271 60.3552 53.335L55.2852 51.305C53.4974 50.59 51.503 50.59 49.7152 51.305L44.6402 53.335C41.66 54.5271 38.3354 54.5271 35.3552 53.335L30.2852 51.305C28.4974 50.59 26.503 50.59 24.7152 51.305L19.6402 53.335C16.66 54.5271 13.3354 54.5271 10.3552 53.335L1.57018 49.82C0.954975 49.5732 0.46295 49.0922 0.202291 48.4828C-0.0583668 47.8733 -0.0663192 47.1853 0.180183 46.57ZM0.180183 61.57C0.426951 60.9548 0.90794 60.4627 1.51739 60.2021C2.12685 59.9414 2.81487 59.9335 3.43018 60.18L12.2152 63.695C14.003 64.41 15.9974 64.41 17.7852 63.695L22.8552 61.665C25.8354 60.4729 29.16 60.4729 32.1402 61.665L37.2152 63.695C39.003 64.41 40.9974 64.41 42.7852 63.695L47.8552 61.665C50.8354 60.4729 54.16 60.4729 57.1402 61.665L62.2152 63.695C64.003 64.41 65.9974 64.41 67.7852 63.695L76.5702 60.18C76.8763 60.0498 77.2054 59.982 77.5381 59.9807C77.8707 59.9793 78.2003 60.0443 78.5076 60.172C78.8148 60.2996 79.0934 60.4873 79.3272 60.724C79.561 60.9607 79.7451 61.2417 79.8689 61.5504C79.9927 61.8592 80.0536 62.1896 80.0481 62.5223C80.0425 62.8549 79.9707 63.1831 79.8367 63.4876C79.7027 63.7921 79.5093 64.0668 79.2677 64.2956C79.0262 64.5244 78.7415 64.7026 78.4302 64.82L69.6402 68.335C66.66 69.5271 63.3354 69.5271 60.3552 68.335L55.2852 66.305C53.4974 65.59 51.503 65.59 49.7152 66.305L44.6402 68.335C41.66 69.5271 38.3354 69.5271 35.3552 68.335L30.2852 66.305C28.4974 65.59 26.503 65.59 24.7152 66.305L19.6402 68.335C16.66 69.5271 13.3354 69.5271 10.3552 68.335L1.57018 64.82C0.954975 64.5732 0.46295 64.0922 0.202291 63.4828C-0.0583668 62.8733 -0.0663192 62.1853 0.180183 61.57Z" fill="black"/>
</g>
<defs>
<clipPath id="clip0_28_66">
<rect width="80" height="80" fill="white"/>
</clipPath>
</defs>
</svg>
