<svg width="80" height="80" viewBox="0 0 80 80" fill="none" xmlns="http://www.w3.org/2000/svg">
<path d="M47.5 62.5C47.4993 63.8748 47.1207 65.223 46.4056 66.3972C45.6904 67.5714 44.6663 68.5265 43.4451 69.158C42.2239 69.7895 40.8527 70.0732 39.4811 69.9781C38.1096 69.883 36.7906 69.4127 35.6683 68.6187C34.5459 67.8246 33.6635 66.7373 33.1173 65.4757C32.5711 64.214 32.3822 62.8265 32.5713 61.4647C32.7603 60.1029 33.32 58.8193 34.1893 57.7542C35.0585 56.689 36.2038 55.8833 37.5 55.425V32.5C37.5 31.837 37.7634 31.2011 38.2322 30.7322C38.7011 30.2634 39.337 30 40 30C40.663 30 41.2989 30.2634 41.7678 30.7322C42.2366 31.2011 42.5 31.837 42.5 32.5V55.425C43.9629 55.9422 45.2294 56.9004 46.1249 58.1675C47.0204 59.4347 47.5008 60.9484 47.5 62.5Z" fill="black"/>
<path d="M27.5 12.5C27.5 9.18479 28.817 6.00537 31.1612 3.66117C33.5054 1.31696 36.6848 0 40 0C43.3152 0 46.4946 1.31696 48.8388 3.66117C51.183 6.00537 52.5 9.18479 52.5 12.5V50.25C54.9117 52.7114 56.543 55.83 57.1894 59.2148C57.8358 62.5996 57.4684 66.0999 56.1335 69.2768C54.7986 72.4537 52.5554 75.1658 49.6853 77.0729C46.8152 78.9801 43.446 79.9975 40 79.9975C36.554 79.9975 33.1848 78.9801 30.3147 77.0729C27.4446 75.1658 25.2014 72.4537 23.8665 69.2768C22.5315 66.0999 22.1642 62.5996 22.8106 59.2148C23.457 55.83 25.0883 52.7114 27.5 50.25V12.5ZM40 5C38.0109 5 36.1032 5.79018 34.6967 7.1967C33.2902 8.60322 32.5 10.5109 32.5 12.5V52.435L31.665 53.185C29.7779 54.8726 28.4476 57.0934 27.8504 59.5536C27.2531 62.0138 27.4169 64.5974 28.3201 66.9624C29.2234 69.3275 30.8235 71.3625 32.9087 72.7982C34.9939 74.234 37.4658 75.0027 39.9975 75.0027C42.5292 75.0027 45.0011 74.234 47.0863 72.7982C49.1715 71.3625 50.7716 69.3275 51.6749 66.9624C52.5781 64.5974 52.7419 62.0138 52.1446 59.5536C51.5474 57.0934 50.2171 54.8726 48.33 53.185L47.5 52.435V12.5C47.5 10.5109 46.7098 8.60322 45.3033 7.1967C43.8968 5.79018 41.9891 5 40 5Z" fill="black"/>
</svg>
